<svg xmlns="http://www.w3.org/2000/svg" viewBox="0 0 32 32"><title>folder_type_log_opened</title><path d="M27.4,5.5H18.2L16.1,9.7H4.3V26.5H29.5V5.5Zm0,18.7H6.6V11.8H27.4Zm0-14.5H19.2l1-2.1h7.1V9.7Z" style="fill:#7add7a"/><polygon points="25.7 13.7 .5 13.7 4.3 26.5 29.5 26.5 25.7 13.7" style="fill:#7add7a"/><rect width="21" height="18.033" x="9.95" y="12.933" style="fill:#00bd02"/><rect width="19.439" height="16.472" x="10.731" y="13.714" style="fill:#fff"/><rect width="21" height="1.483" x="9.95" y="13.714" style="fill:#00bd02"/><rect width="6.376" height=".781" x="16.846" y="16.837" style="fill:#00bd02"/><rect width="9.758" height=".781" x="16.846" y="18.853" style="fill:#00bd02"/><rect width="8.288" height=".781" x="16.846" y="20.935" style="fill:#00bd02"/><rect width="11.06" height=".781" x="16.846" y="23.147" style="fill:#00bd02"/><rect width="7.677" height=".781" x="16.846" y="25.424" style="fill:#00bd02"/><rect width="9.498" height=".781" x="16.976" y="27.44" style="fill:#00bd02"/><rect width="3.383" height=".781" x="12.292" y="16.837" style="fill:#00bd02"/><rect width="3.383" height=".781" x="12.292" y="18.853" style="fill:#00bd02"/><rect width="3.383" height=".781" x="12.292" y="18.853" style="fill:#00bd02"/><rect width="3.383" height=".781" x="12.292" y="20.87" style="fill:#00bd02"/><rect width="3.383" height=".781" x="12.292" y="22.887" style="fill:#00bd02"/><rect width="3.383" height=".781" x="12.292" y="25.424" style="fill:#00bd02"/><rect width="3.383" height=".781" x="12.292" y="27.44" style="fill:#00bd02"/></svg>