<svg xmlns="http://www.w3.org/2000/svg" viewBox="0 0 32 32"><title>folder_type_log</title><path d="M27.5,5.5H18.2L16.1,9.7H4.4V26.5H29.6V5.5Zm0,4.2H19.3l1.1-2.1h7.1Z" style="fill:#53c153"/><rect width="21" height="18.033" x="9.95" y="12.933" style="fill:#00bd02"/><rect width="19.439" height="16.472" x="10.731" y="13.714" style="fill:#fff"/><rect width="21" height="1.483" x="9.95" y="13.714" style="fill:#00bd02"/><rect width="6.376" height=".781" x="16.846" y="16.837" style="fill:#00bd02"/><rect width="9.758" height=".781" x="16.846" y="18.853" style="fill:#00bd02"/><rect width="8.288" height=".781" x="16.846" y="20.935" style="fill:#00bd02"/><rect width="11.06" height=".781" x="16.846" y="23.147" style="fill:#00bd02"/><rect width="7.677" height=".781" x="16.846" y="25.424" style="fill:#00bd02"/><rect width="9.498" height=".781" x="16.976" y="27.44" style="fill:#00bd02"/><rect width="3.383" height=".781" x="12.292" y="16.837" style="fill:#00bd02"/><rect width="3.383" height=".781" x="12.292" y="18.853" style="fill:#00bd02"/><rect width="3.383" height=".781" x="12.292" y="18.853" style="fill:#00bd02"/><rect width="3.383" height=".781" x="12.292" y="20.87" style="fill:#00bd02"/><rect width="3.383" height=".781" x="12.292" y="22.887" style="fill:#00bd02"/><rect width="3.383" height=".781" x="12.292" y="25.424" style="fill:#00bd02"/><rect width="3.383" height=".781" x="12.292" y="27.44" style="fill:#00bd02"/></svg>